<svg id="Layer_1" data-name="Layer 1" xmlns="http://www.w3.org/2000/svg" viewBox="0 0 279.47 186.66"><defs><style>.cls-1{fill:#ce4141;}</style></defs><path d="M325.24,439.16V389.53q0-6.33,2.85-9.5a9.57,9.57,0,0,1,7.49-3.17,9.83,9.83,0,0,1,7.71,3.17q2.85,3.17,2.85,9.5v50.76a46.27,46.27,0,0,0,1.94,14.46,16.72,16.72,0,0,0,6.86,9q4.94,3.19,13.8,3.2,12.25,0,17.32-6.51t5.07-19.75V389.53q0-6.4,2.82-9.54a9.6,9.6,0,0,1,7.53-3.13,10,10,0,0,1,7.64,3.13q2.91,3.13,2.92,9.54v49.63q0,12.1-2.36,20.21a31.27,31.27,0,0,1-8.9,14.22,34.65,34.65,0,0,1-13.1,7.6,57.13,57.13,0,0,1-17.46,2.39A71.78,71.78,0,0,1,349.73,481a32.72,32.72,0,0,1-14-7.95,32,32,0,0,1-8-13.8A70.19,70.19,0,0,1,325.24,439.16Z" transform="translate(-325.24 -327.44)"/><path d="M411.76,416.07v2.32a33.69,33.69,0,0,1,11.09-9.82,29.49,29.49,0,0,1,13.83-3.13,27.57,27.57,0,0,1,13.59,3.31,21.06,21.06,0,0,1,8.94,9.36,22.1,22.1,0,0,1,2.46,7.6,78,78,0,0,1,.57,10.42V471.9q0,5.78-2.64,8.73a8.78,8.78,0,0,1-6.87,2.95,8.9,8.9,0,0,1-7-3q-2.67-3-2.67-8.66v-32q0-9.51-2.64-14.54t-10.53-5a15.55,15.55,0,0,0-9.36,3.07,17.59,17.59,0,0,0-6.2,8.41q-1.41,4.29-1.4,16.05V471.9c0,3.89-.91,6.82-2.71,8.76a9.13,9.13,0,0,1-7,2.92,8.72,8.72,0,0,1-6.83-3q-2.67-3-2.67-8.66V416.35c0-3.66.79-6.39,2.39-8.2a8.29,8.29,0,0,1,6.55-2.71,8.84,8.84,0,0,1,4.57,1.2,8.57,8.57,0,0,1,3.28,3.59A12.64,12.64,0,0,1,411.76,416.07Z" transform="translate(-325.24 -327.44)"/><path d="M476.1,396.5a10.09,10.09,0,0,1-6.86-2.47,9.54,9.54,0,0,1,.07-13.69,9.8,9.8,0,0,1,6.79-2.64,10.07,10.07,0,0,1,6.62,2.4c1.92,1.59,2.88,3.92,2.88,7a8.82,8.82,0,0,1-2.81,6.93A9.74,9.74,0,0,1,476.1,396.5Zm9.5,19.85V471.9q0,5.78-2.74,8.73a9.09,9.09,0,0,1-7,2.95,8.71,8.71,0,0,1-6.87-3c-1.75-2-2.64-4.91-2.64-8.66v-55c0-3.81.89-6.67,2.64-8.59a8.86,8.86,0,0,1,6.87-2.89,9.18,9.18,0,0,1,7,2.89C484.69,410.25,485.6,412.93,485.6,416.35Z" transform="translate(-325.24 -327.44)"/><path d="M496.51,406.13h2.11V394.58c0-3.09.09-5.52.25-7.28a10.82,10.82,0,0,1,1.37-4.54,8.68,8.68,0,0,1,3.24-3.21,9.21,9.21,0,0,1,4.72-1.23,9.5,9.5,0,0,1,6.62,2.75,8.21,8.21,0,0,1,2.5,4.47,40.89,40.89,0,0,1,.52,7.49v13.1h7c2.73,0,4.8.64,6.23,1.94a6.35,6.35,0,0,1,2.15,5,5.56,5.56,0,0,1-3.06,5.42q-3.06,1.55-8.77,1.55h-3.59v35.34a57.44,57.44,0,0,0,.32,6.93,7.11,7.11,0,0,0,1.69,4c.92,1,2.4,1.51,4.47,1.51a23.9,23.9,0,0,0,4.58-.6,23.61,23.61,0,0,1,4.5-.6,5.8,5.8,0,0,1,4.19,1.87,6.27,6.27,0,0,1,1.87,4.61q0,4.65-5.07,7.11t-14.57,2.46q-9,0-13.66-3a14,14,0,0,1-6.09-8.38,56.9,56.9,0,0,1-1.45-14.29V420h-2.53q-4.15,0-6.34-2a6.47,6.47,0,0,1-2.18-5,6.19,6.19,0,0,1,2.29-5C491.38,406.77,493.6,406.13,496.51,406.13Z" transform="translate(-325.24 -327.44)"/><path d="M558.24,488l1.76-4.3-23.66-59.56q-2.18-5.13-2.18-7.46a8.66,8.66,0,0,1,1.27-4.57,9.34,9.34,0,0,1,3.48-3.38,9.14,9.14,0,0,1,4.61-1.27,7.55,7.55,0,0,1,6.27,2.64,24.31,24.31,0,0,1,3.73,7.57L569.78,465l15.42-44a75,75,0,0,1,3.31-8.38,9.87,9.87,0,0,1,3.13-4.08,8.65,8.65,0,0,1,4.68-1.06,8.28,8.28,0,0,1,4.19,1.16,8.17,8.17,0,0,1,3.1,3.13,8.45,8.45,0,0,1,1.09,4.16c-.19.89-.49,2.16-.91,3.8s-.94,3.31-1.55,5L577.17,490.3a76.76,76.76,0,0,1-6.33,13.59,20.94,20.94,0,0,1-8.2,7.57c-3.41,1.76-8,2.64-13.77,2.64s-9.85-.61-12.67-1.83a6.69,6.69,0,0,1-4.22-6.69,6.53,6.53,0,0,1,2-5.11q2-1.79,5.95-1.79a11,11,0,0,1,3,.42,14.49,14.49,0,0,0,3.17.42,11.57,11.57,0,0,0,5.21-1,9.13,9.13,0,0,0,3.41-3.42A53.11,53.11,0,0,0,558.24,488Z" transform="translate(-325.24 -327.44)"/><rect class="cls-1" x="342.74" y="320.51" width="15.83" height="56" rx="7.91" transform="translate(59.15 -472.17) rotate(49.09)"/><rect class="cls-1" x="377.27" y="321.3" width="15.83" height="56" rx="7.91" transform="translate(570.39 -77.34) rotate(126.8)"/></svg>